<svg width="1060" height="243" viewBox="0 0 1060 243" fill="none" xmlns="http://www.w3.org/2000/svg">
<path d="M860.316 239.652V3.23235H910.302V107.474H913.418L998.498 3.23235H1058.41L970.677 109.09L1059.45 239.652H999.652L934.89 142.452L910.302 172.467V239.652H860.316Z" fill="#141414"/>
<path d="M646.983 239.652V3.23235H740.258C758.113 3.23235 773.351 6.42617 785.973 12.8138C798.671 19.1245 808.33 28.0903 814.948 39.7112C821.644 51.2551 824.991 64.8385 824.991 80.4613C824.991 96.1611 821.605 109.667 814.833 120.981C808.06 132.217 798.248 140.836 785.395 146.839C772.62 152.842 757.151 155.843 738.989 155.843H717.171V115.67H730.908C740.451 115.67 748.378 114.362 754.688 111.745C760.999 109.129 765.694 105.204 768.772 99.9706C771.928 94.7373 773.505 88.2342 773.505 80.4613C773.505 72.6114 771.928 65.9929 768.772 60.6057C765.694 55.2186 760.961 51.1397 754.573 48.3692C748.262 45.5217 740.297 44.0979 730.677 44.0979H696.969V239.652H646.983ZM774.66 132.063L833.419 239.652H778.238L720.749 132.063H774.66Z" fill="#141414"/>
<path d="M444.559 239.652H390.995L472.611 3.23235H537.026L618.527 239.652H564.963L505.742 57.258H503.895L444.559 239.652Z" fill="#00ADE6"/>
<path d="M220.635 239.652V3.23235H313.91C331.842 3.23235 347.118 6.65705 359.74 13.5065C372.361 20.2789 381.981 29.7064 388.6 41.7891C395.295 53.7948 398.643 67.6475 398.643 83.3473C398.643 99.0471 395.257 112.9 388.484 124.906C381.712 136.911 371.899 146.262 359.047 152.957C346.272 159.653 330.803 163.001 312.64 163.001H290.437V122.943H304.559C314.179 122.943 322.106 121.288 328.34 117.979C334.651 114.593 339.345 109.937 342.424 104.011C345.579 98.0081 347.157 91.1202 347.157 83.3473C347.157 75.4974 345.579 68.648 342.424 62.7991C339.345 56.8732 334.651 52.2941 328.34 49.0618C322.029 45.7525 314.025 44.0979 304.328 44.0979H270.62V239.652H220.635Z" fill="#141414"/>
<path d="M135.873 71.2261C134.949 61.914 130.986 54.6798 123.982 49.5235C116.979 44.3672 107.475 41.7891 95.4688 41.7891C87.3111 41.7891 80.4231 42.9435 74.8051 45.2523C69.187 47.4841 64.8772 50.601 61.8758 54.6029C58.9513 58.6048 57.4891 63.1454 57.4891 68.2247C57.3352 72.4575 58.2202 76.1516 60.1442 79.3069C62.1452 82.4622 64.8772 85.1943 68.3404 87.5031C71.8036 89.7349 75.8055 91.6974 80.3462 93.3905C84.8868 95.0067 89.7353 96.3919 94.8916 97.5463L116.133 102.626C126.445 104.934 135.911 108.013 144.531 111.861C153.15 115.709 160.615 120.442 166.926 126.06C173.237 131.678 178.124 138.296 181.587 145.915C185.127 153.534 186.936 162.269 187.013 172.12C186.936 186.589 183.242 199.133 175.93 209.753C168.696 220.297 158.23 228.493 144.531 234.342C130.909 240.114 114.478 243 95.2379 243C76.1519 243 59.5285 240.076 45.3679 234.227C31.2842 228.378 20.2789 219.72 12.3521 208.253C4.50216 196.709 0.3848 182.433 0 165.425H48.3693C48.908 173.352 51.1784 179.97 55.1803 185.28C59.2592 190.514 64.6848 194.477 71.4573 197.171C78.3067 199.787 86.0412 201.095 94.6607 201.095C103.126 201.095 110.476 199.864 116.71 197.401C123.02 194.939 127.907 191.514 131.371 187.127C134.834 182.741 136.565 177.7 136.565 172.005C136.565 166.695 134.988 162.231 131.832 158.614C128.754 154.997 124.213 151.918 118.21 149.379C112.285 146.839 105.012 144.53 96.3923 142.452L70.6492 135.988C50.7166 131.139 34.9783 123.559 23.4343 113.246C11.8903 102.933 6.1568 89.0423 6.23376 71.5724C6.1568 57.258 9.96631 44.752 17.6623 34.0546C25.4353 23.3573 36.0942 15.0071 49.6392 9.00428C63.1841 3.00143 78.5761 0 95.8151 0C113.362 0 128.677 3.00143 141.76 9.00428C154.92 15.0071 165.156 23.3573 172.467 34.0546C179.778 44.752 183.549 57.1425 183.78 71.2261H135.873Z" fill="#141414"/>
</svg>
