<svg width="1060" height="243" viewBox="0 0 1060 243" fill="none" xmlns="http://www.w3.org/2000/svg">
<path d="M860.312 239.652V3.23234H910.298V107.474H913.414L998.493 3.23234H1058.41L970.672 109.09L1059.45 239.652H999.648L934.886 142.452L910.298 172.467V239.652H860.312Z" fill="white"/>
<path d="M646.98 239.652V3.23234H740.255C758.11 3.23234 773.348 6.42616 785.969 12.8138C798.668 19.1245 808.326 28.0903 814.945 39.7112C821.64 51.2551 824.988 64.8385 824.988 80.4613C824.988 96.1611 821.602 109.667 814.829 120.981C808.057 132.217 798.244 140.836 785.392 146.839C772.617 152.842 757.148 155.843 738.985 155.843H717.167V115.67H730.905C740.448 115.67 748.375 114.362 754.685 111.745C760.996 109.129 765.69 105.204 768.769 99.9706C771.924 94.7373 773.502 88.2342 773.502 80.4613C773.502 72.6114 771.924 65.9929 768.769 60.6057C765.69 55.2186 760.957 51.1397 754.57 48.3691C748.259 45.5216 740.294 44.0979 730.674 44.0979H696.966V239.652H646.98ZM774.656 132.063L833.415 239.652H778.235L720.746 132.063H774.656Z" fill="white"/>
<path d="M444.557 239.652H390.993L472.609 3.23234H537.024L618.524 239.652H564.96L505.74 57.258H503.893L444.557 239.652Z" fill="white"/>
<path d="M220.634 239.652V3.23234H313.909C331.84 3.23234 347.117 6.65704 359.738 13.5065C372.359 20.2789 381.979 29.7064 388.598 41.7891C395.293 53.7948 398.641 67.6475 398.641 83.3473C398.641 99.0471 395.255 112.9 388.482 124.905C381.71 136.911 371.898 146.262 359.045 152.957C346.27 159.653 330.801 163 312.639 163H290.436V122.943H304.558C314.178 122.943 322.105 121.288 328.339 117.979C334.649 114.593 339.344 109.937 342.422 104.011C345.577 98.0081 347.155 91.1202 347.155 83.3473C347.155 75.4974 345.577 68.648 342.422 62.7991C339.344 56.8732 334.649 52.2941 328.339 49.0618C322.028 45.7525 314.024 44.0979 304.327 44.0979H270.619V239.652H220.634Z" fill="white"/>
<path d="M135.872 71.2261C134.949 61.914 130.985 54.6798 123.982 49.5235C116.979 44.3672 107.474 41.7891 95.4684 41.7891C87.3107 41.7891 80.4228 42.9435 74.8048 45.2523C69.1867 47.4841 64.877 50.601 61.8755 54.6029C58.9511 58.6048 57.4888 63.1454 57.4888 68.2247C57.3349 72.4575 58.22 76.1516 60.1439 79.3069C62.1449 82.4622 64.877 85.1943 68.3401 87.5031C71.8033 89.7349 75.8052 91.6974 80.3458 93.3905C84.8865 95.0067 89.7349 96.3919 94.8912 97.5463L116.132 102.626C126.445 104.934 135.911 108.013 144.53 111.861C153.15 115.709 160.615 120.442 166.925 126.06C173.236 131.678 178.123 138.296 181.586 145.915C185.126 153.534 186.935 162.269 187.012 172.12C186.935 186.589 183.241 199.133 175.93 209.753C168.695 220.297 158.229 228.493 144.53 234.342C130.908 240.114 114.477 243 95.2375 243C76.1515 243 59.5283 240.076 45.3677 234.227C31.2841 228.378 20.2789 219.72 12.352 208.253C4.50214 196.709 0.384799 182.433 0 165.425H48.3691C48.9078 173.352 51.1781 179.97 55.18 185.28C59.2589 190.514 64.6846 194.477 71.457 197.171C78.3064 199.787 86.0409 201.095 94.6603 201.095C103.126 201.095 110.476 199.864 116.709 197.401C123.02 194.939 127.907 191.514 131.37 187.127C134.833 182.741 136.565 177.7 136.565 172.005C136.565 166.695 134.987 162.231 131.832 158.614C128.753 154.997 124.213 151.918 118.21 149.379C112.284 146.839 105.011 144.53 96.3919 142.452L70.6489 135.988C50.7164 131.139 34.9781 123.559 23.4342 113.246C11.8903 102.933 6.15677 89.0423 6.23373 71.5724C6.15677 57.258 9.96627 44.752 17.6622 34.0546C25.4352 23.3573 36.0941 15.0071 49.639 9.00428C63.1838 3.00143 78.5758 0 95.8147 0C113.362 0 128.676 3.00143 141.76 9.00428C154.92 15.0071 165.155 23.3573 172.467 34.0546C179.778 44.752 183.549 57.1425 183.78 71.2261H135.872Z" fill="white"/>
</svg>
